{"title":"Witches of East End S01E10 HDTV x264 AAC E-Subs [GWC].mp4","uid":9353986,"size":126941551,"categoryP":"video","categoryS":"tv_shows","magnet":"?xt=urn:btih:9356623c152fa2d906cc30e2157730bf5260288a&amp;dn=Witches+of+East+End+S01E10+HDTV+x264+AAC+E-Subs+%5BGWC%5D.mp4&amp;tr=udp%3A%2F%2Ftracker.openbittorrent.com%3A80&amp;tr=udp%3A%2F%2Fopen.demonii.com%3A1337&amp;tr=udp%3A%2F%2Ftracker.coppersurfer.tk%3A6969&amp;tr=udp%3A%2F%2Fexodus.desync.com%3A6969","seeders":0,"leechers":0,"uploader":"canc232","files":1,"time":1387190722,"description":"Witches of East End S01E10 HDTV 480p x264 AAC E-Subs [GWC]\n\n\n\nSCREENS : &lt;a href=&quot;\nhttp://s20.postimg.org/63iiax37h/Witches_East_End_S01_E10_15_02_05.jpg&quot; rel=&quot;nofollow&quot; target=&quot;_NEW&quot;&gt;\nhttp://s20.postimg.org/63iiax37h/Witches_East_End_S01_E10_15_02_05.jpg&lt;/a&gt; &lt;a href=&quot;\nhttp://s20.postimg.org/itmqo0b5p/Witches_East_End_S01_E10_15_02_20.jpg&quot; rel=&quot;nofollow&quot; target=&quot;_NEW&quot;&gt;\nhttp://s20.postimg.org/itmqo0b5p/Witches_East_End_S01_E10_15_02_20.jpg&lt;/a&gt; &lt;a href=&quot;\nhttp://s20.postimg.org/60ymo2zjx/Witches_East_End_S01_E10_15_02_24.jpg&quot; rel=&quot;nofollow&quot; target=&quot;_NEW&quot;&gt;\nhttp://s20.postimg.org/60ymo2zjx/Witches_East_End_S01_E10_15_02_24.jpg&lt;/a&gt;\n\n\n\nMEDIA INFO :\n\nGeneral\nFormat : MPEG-4 \nFormat profile : Base Media\nFile size : 121 MiB \nDuration : 42mn 8s \nOverall bit rate mode : Variable \nOverall bit rate : 402 Kbps\n\nVideo\nFormat : AVC  \nFormat profile : &lt;a class=&quot;__cf_email__&quot; href=&quot;/cdn-cgi/l/email-protection&quot; data-cfemail=&quot;1159787679515d223f21&quot;&gt;[email&amp;#160;protected]&lt;/a&gt;&lt;script data-cfhash='f9e31' type=&quot;text/javascript&quot;&gt;\n/* &lt;![CDATA[ */!function(){try{var t=&quot;currentScript&quot;in document?document.currentScript:function(){for(var t=document.getElementsByTagName(&quot;script&quot;),e=t.length;e--;)if(t[e].getAttribute(&quot;data-cfhash&quot;))return t[e]}();if(t&amp;&amp;t.previousSibling){var e,r,n,i,c=t.previousSibling,a=c.getAttribute(&quot;data-cfemail&quot;);if(a){for(e=&quot;&quot;,r=parseInt(a.substr(0,2),16),n=2;a.length-n;n+=2)i=parseInt(a.substr(n,2),16)^r,e+=String.fromCharCode(i);e=document.createTextNode(e),c.parentNode.replaceChild(e,c)}t.parentNode.removeChild(t);}}catch(u){}}()/* ]]&gt; */&lt;/script&gt; \nFormat settings, CABAC : Yes \nFormat settings, ReFrames : 4 frames\nDuration : 42mn 2s \nBit rate : 339 Kbps\nWidth : 720 pixels \nHeight : 404 pixels \nDisplay aspect ratio : 16:9\nFrame rate : 23.976 fps\nStream size : 102 MiB (84%) \nTitle : Witches of East End S01E10 HDTV 480p x264 AAC E-Subs [GWC] \nWriting library : x264 core\n\nAudio \nFormat : AAC \nFormat profile : HE-AAC / LC\nDuration : 42mn 2s \nBit rate mode : Variable \nChannel(s) : 2 channels \nSampling rate : 48.0 KHz / 24.0 KHz \nStream size : 18.0 MiB \nLanguage : English  \n\nText \nCodec ID : tx3g \nDuration : 42mn 8s \nStream size : 22.1 KiB (0%) \nTitle : English Subtitle Reef \nLanguage : English ","torrent":{"xt":"urn:btih:9356623c152fa2d906cc30e2157730bf5260288a","amp;dn":"Witches+of+East+End+S01E10+HDTV+x264+AAC+E-Subs+%5BGWC%5D.mp4","amp;tr":["udp%3A%2F%2Ftracker.openbittorrent.com%3A80","udp%3A%2F%2Fopen.demonii.com%3A1337","udp%3A%2F%2Ftracker.coppersurfer.tk%3A6969","udp%3A%2F%2Fexodus.desync.com%3A6969"],"infoHash":"9356623c152fa2d906cc30e2157730bf5260288a","infoHashBuffer":{"type":"Buffer","data":[147,86,98,60,21,47,162,217,6,204,48,226,21,119,48,191,82,96,40,138]},"announce":[],"urlList":[]}}